<?xml version="1.0" encoding="utf-8"?>
<!-- Generator: Adobe Illustrator 19.2.1, SVG Export Plug-In . SVG Version: 6.00 Build 0)  -->
<svg version="1.1" id="Layer_1" xmlns="http://www.w3.org/2000/svg" xmlns:xlink="http://www.w3.org/1999/xlink" x="0px" y="0px"
	 viewBox="0 0 24.5 18.9" style="enable-background:new 0 0 24.5 18.9;" xml:space="preserve">
<style type="text/css">
	.st0{fill:#231F20;}
</style>
<path class="st0" d="M22.3,0.6C21,0.2,19.7,0,18.4,0c-2.2,0-4.5,0.4-6.1,1.7C10.6,0.4,8.3,0,6.1,0S1.6,0.4,0,1.7V18
	c0,0.3,0.3,0.6,0.6,0.6c0.1,0,0.2-0.1,0.3-0.1c1.5-0.7,3.7-1.2,5.3-1.2c2.2,0,4.5,0.4,6.1,1.7c1.5-0.9,4.2-1.7,6.1-1.7
	c1.8,0,3.7,0.3,5.3,1.2c0.1,0.1,0.2,0.1,0.3,0.1c0.3,0,0.6-0.3,0.6-0.6V1.7C23.8,1.2,23.1,0.8,22.3,0.6z M22.3,15.6
	C21,15.2,19.7,15,18.4,15c-1.9,0-4.6,0.7-6.1,1.7V3.9c1.5-0.9,4.2-1.7,6.1-1.7c1.3,0,2.7,0.2,3.9,0.6V15.6z"/>
</svg>
