<?xml version="1.0" encoding="utf-8"?>
<!-- Generator: Adobe Illustrator 19.2.1, SVG Export Plug-In . SVG Version: 6.00 Build 0)  -->
<svg version="1.1" id="Layer_1" xmlns="http://www.w3.org/2000/svg" xmlns:xlink="http://www.w3.org/1999/xlink" x="0px" y="0px"
	 viewBox="0 0 23.6 23.6" style="enable-background:new 0 0 23.6 23.6;" xml:space="preserve">
<path d="M22.8,7.6c-0.6-1.6-1.5-3-2.7-4.1C18,1.3,15.1,0,11.9,0c0,0-0.1,0-0.1,0C9.7,0,7.7,0.6,6,1.5C3.5,3,1.5,5.3,0.6,8
	C0.2,9.2,0,10.5,0,11.8c0,0,0,0,0,0c0,0.7,0.1,1.4,0.2,2c0.2,0.9,0.4,1.8,0.8,2.6c1.8,4.1,5.9,7.1,10.7,7.1c0,0,0.1,0,0.1,0
	c2.1,0,4.1-0.6,5.8-1.5c3.6-2,6-5.9,6-10.3C23.6,10.3,23.3,8.9,22.8,7.6z M7,4.4c0.1-0.6,0.3-1.1,0.4-1.5c1.2-0.6,2.5-0.9,3.9-1
	C11.7,2.2,12,2.5,12.4,3c0.4,0.5,0.8,1.1,1.2,1.7c0.9,1.6,1.8,3.6,2.4,6c0.1,0.5,0.2,0.9,0.3,1.4c-1.3,0.8-2.9,1.5-4.7,2
	c-1.2,0.4-2.4,0.7-3.5,0.9c-0.2-0.6-0.4-1.3-0.6-2c-0.6-2.4-0.8-4.5-0.8-6.4C6.8,5.8,6.9,5.1,7,4.4z M1.9,11.8
	c0-0.9,0.1-1.8,0.4-2.6c0.3-1.2,0.9-2.4,1.6-3.3C4.2,5.4,4.6,4.9,5,4.5C5,4.8,5,5,5,5.3C4.9,6,4.8,6.7,4.9,7.4
	c0,1.8,0.3,3.8,0.8,5.9C5.9,14,6,14.6,6.2,15.2c-0.4,0-0.8,0-1.2,0c-1,0-1.9-0.1-2.6-0.3C2.1,14,1.9,12.9,1.9,11.8z M3.4,17
	c0.5,0.1,1.1,0.1,1.7,0.1c0.6,0,1.2,0,1.9-0.1c0.7,1.7,1.6,3.2,2.5,4.4C6.9,20.8,4.7,19.2,3.4,17z M16.6,18.9
	c-0.1,0.7-0.3,1.3-0.5,1.8c-1.2,0.6-2.5,0.9-3.9,1c-1.2-0.9-2.4-2.7-3.4-5c1.1-0.2,2.3-0.5,3.4-0.8c1.6-0.5,3.1-1.1,4.4-1.8
	C16.9,15.8,16.9,17.5,16.6,18.9z M17.9,10.2c-0.5-2.1-1.3-4-2.2-5.7c-0.4-0.7-0.7-1.3-1.1-1.9c-0.1-0.2-0.3-0.4-0.4-0.6
	c0.5,0.1,1,0.3,1.5,0.5C17,3.2,18.1,4,19,5c0.7,0.8,1.3,1.7,1.8,2.7c-0.3,1-1.3,2.1-2.8,3.2C18,10.7,17.9,10.5,17.9,10.2z
	 M18.5,19.1c0.3-1.8,0.3-3.9-0.1-6.1c1.3-0.9,2.4-1.8,3.1-2.8c0.1,0.5,0.1,1,0.1,1.6C21.7,14.7,20.5,17.3,18.5,19.1z"/>
</svg>
