<?xml version="1.0" encoding="utf-8"?>
<!-- Generator: Adobe Illustrator 19.2.1, SVG Export Plug-In . SVG Version: 6.00 Build 0)  -->
<svg version="1.1" id="Layer_1" xmlns="http://www.w3.org/2000/svg" xmlns:xlink="http://www.w3.org/1999/xlink" x="0px" y="0px"
	 viewBox="0 0 22.7 16.2" style="enable-background:new 0 0 22.7 16.2;" xml:space="preserve">
<path d="M3.2,13H1.6C0.7,13,0,13.7,0,14.6s0.7,1.6,1.6,1.6h1.6c0.9,0,1.6-0.7,1.6-1.6C4.9,13.7,4.1,13,3.2,13z M3.2,6.5H1.6
	C0.7,6.5,0,7.2,0,8.1C0,9,0.7,9.7,1.6,9.7h1.6c0.9,0,1.6-0.7,1.6-1.6C4.9,7.2,4.1,6.5,3.2,6.5z M3.2,0H1.6C0.7,0,0,0.7,0,1.6
	s0.7,1.6,1.6,1.6h1.6c0.9,0,1.6-0.7,1.6-1.6C4.9,0.7,4.1,0,3.2,0z M9.7,3.2h11.4c0.9,0,1.6-0.7,1.6-1.6S22,0,21.1,0H9.7
	C8.8,0,8.1,0.7,8.1,1.6S8.8,3.2,9.7,3.2z M21.1,6.5H9.7c-0.9,0-1.6,0.7-1.6,1.6c0,0.9,0.7,1.6,1.6,1.6h11.4c0.9,0,1.6-0.7,1.6-1.6
	C22.7,7.2,22,6.5,21.1,6.5z M21.1,13H9.7c-0.9,0-1.6,0.7-1.6,1.6s0.7,1.6,1.6,1.6h11.4c0.9,0,1.6-0.7,1.6-1.6
	C22.7,13.7,22,13,21.1,13z"/>
</svg>
