<?xml version="1.0" encoding="utf-8"?>
<!-- Generator: Adobe Illustrator 19.2.1, SVG Export Plug-In . SVG Version: 6.00 Build 0)  -->
<svg version="1.1" id="Layer_1" xmlns="http://www.w3.org/2000/svg" xmlns:xlink="http://www.w3.org/1999/xlink" x="0px" y="0px"
	 viewBox="0 0 14.1 21.8" style="enable-background:new 0 0 14.1 21.8;" xml:space="preserve">
<style type="text/css">
	.st0{fill:#939292;}
</style>
<g>
	<g>
		<path class="st0" d="M7,21.8L7,21.8c-0.2,0-0.4-0.1-0.5-0.2C6.3,21.2,0,13.3,0,7c0-3.9,3.2-7,7-7c3.9,0,7,3.2,7,7
			c0,6.3-6.3,14.2-6.5,14.5C7.4,21.7,7.2,21.8,7,21.8z M7,4.3c-1.6,0-2.8,1.3-2.8,2.8c0,1.6,1.3,2.8,2.8,2.8s2.8-1.3,2.8-2.8
			C9.9,5.6,8.6,4.3,7,4.3z"/>
	</g>
</g>
</svg>
