<?xml version="1.0" encoding="utf-8"?>
<!-- Generator: Adobe Illustrator 19.2.1, SVG Export Plug-In . SVG Version: 6.00 Build 0)  -->
<svg version="1.1" id="Layer_1" xmlns="http://www.w3.org/2000/svg" xmlns:xlink="http://www.w3.org/1999/xlink" x="0px" y="0px"
	 viewBox="0 0 15 15" style="enable-background:new 0 0 15 15;" xml:space="preserve">
<style type="text/css">
	.st0{fill:#FFFFFF;}
</style>
<path class="st0" d="M0,0v15l1.3-1.3L2.5,15l1.3-1.3L5,15l1.3-1.3L7.5,15l1.3-1.3L10,15l1.3-1.3l1.3,1.3l1.3-1.3L15,15V0H0z M6.9,5
	C6.9,5.1,7,5.2,7,5.3c0.1,0.1,0.2,0.1,0.3,0.2c0.1,0.1,0.3,0.1,0.5,0.2c0.3,0.1,0.6,0.2,0.8,0.4C8.8,6.2,9,6.3,9.2,6.5
	C9.4,6.6,9.5,6.8,9.6,7c0.1,0.2,0.1,0.5,0.1,0.8c0,0.3,0,0.5-0.1,0.7C9.5,8.7,9.4,8.9,9.2,9.1C9.1,9.2,8.9,9.3,8.7,9.4
	C8.5,9.5,8.2,9.6,7.9,9.6v0.9H7.2V9.6C7,9.6,6.7,9.5,6.5,9.4C6.3,9.3,6.1,9.2,5.9,9C5.7,8.9,5.6,8.7,5.5,8.4
	C5.3,8.1,5.3,7.8,5.3,7.5h1.3c0,0.2,0,0.4,0.1,0.5c0.1,0.1,0.1,0.3,0.2,0.3C7,8.4,7.1,8.5,7.2,8.5c0.1,0,0.2,0.1,0.4,0.1
	c0.1,0,0.3,0,0.4-0.1c0.1,0,0.2-0.1,0.3-0.2c0.1-0.1,0.1-0.2,0.2-0.2c0-0.1,0.1-0.2,0.1-0.3c0-0.1,0-0.2,0-0.3
	c0-0.1-0.1-0.2-0.2-0.3C8.2,7.1,8.1,7.1,7.9,7C7.8,6.9,7.7,6.9,7.5,6.8C7.2,6.7,6.9,6.6,6.7,6.5C6.5,6.3,6.3,6.2,6.1,6
	C5.9,5.9,5.8,5.7,5.7,5.5C5.6,5.3,5.5,5,5.5,4.7c0-0.3,0-0.5,0.1-0.7C5.8,3.8,5.9,3.6,6,3.5c0.2-0.2,0.3-0.3,0.6-0.4
	C6.8,3,7.1,2.9,7.3,2.9v-1H8v1c0.3,0,0.5,0.1,0.7,0.2C9,3.2,9.1,3.4,9.3,3.6C9.4,3.7,9.5,4,9.6,4.2C9.7,4.4,9.7,4.7,9.7,5H8.4
	c0-0.4-0.1-0.6-0.2-0.8C8.1,4,7.9,3.9,7.6,3.9C7.5,3.9,7.4,4,7.3,4C7.2,4,7.1,4.1,7,4.2C7,4.2,6.9,4.3,6.9,4.4c0,0.1,0,0.2,0,0.3
	S6.9,4.9,6.9,5z"/>
</svg>
