<?xml version="1.0" encoding="utf-8"?>
<!-- Generator: Adobe Illustrator 19.2.1, SVG Export Plug-In . SVG Version: 6.00 Build 0)  -->
<svg version="1.1" id="Layer_1" xmlns="http://www.w3.org/2000/svg" xmlns:xlink="http://www.w3.org/1999/xlink" x="0px" y="0px"
	 viewBox="0 0 19 19" style="enable-background:new 0 0 19 19;" xml:space="preserve">
<style type="text/css">
	.st0{fill:#777777;}
</style>
<g>
	<path class="st0" d="M15.4,0H3.6C1.6,0,0,1.6,0,3.6v11.9c0,2,1.6,3.6,3.6,3.6h11.9c2,0,3.6-1.6,3.6-3.6V3.6C19,1.6,17.4,0,15.4,0
		L15.4,0z M14.2,7.4l0,0.3c0,3.1-2.4,6.7-6.7,6.7c-1.3,0-2.5-0.4-3.6-1.1c0.2,0,0.4,0,0.6,0c1.1,0,2.1-0.4,2.9-1
		c-1,0-1.9-0.7-2.2-1.6c0.1,0,0.3,0,0.4,0c0.2,0,0.4,0,0.6-0.1c-1.1-0.2-1.9-1.2-1.9-2.3v0c0.3,0.2,0.7,0.3,1.1,0.3
		c-0.6-0.4-1-1.1-1-1.9c0-0.4,0.1-0.8,0.3-1.2c1.1,1.4,2.9,2.3,4.8,2.4c0-0.2-0.1-0.3-0.1-0.5c0-1.3,1-2.3,2.3-2.3
		c0.7,0,1.3,0.3,1.7,0.7c0.5-0.1,1-0.3,1.5-0.6c-0.2,0.5-0.5,1-1,1.3c0.5-0.1,0.9-0.2,1.3-0.4C15.1,6.6,14.7,7,14.2,7.4L14.2,7.4z
		 M14.2,7.4"/>
</g>
</svg>
